<mxfile host="drawio-plugin" modified="2024-01-11T19:24:54.793Z" agent="5.0 (Windows NT 6.2; Win64; x64) AppleWebKit/537.36 (KHTML, like Gecko) Chrome/104.0.5112.102 Safari/537.36" etag="VUyxi9gEHEek_3jKUTVg" version="20.5.3" type="embed"><diagram id="SaIWRgzSBZwKoK5o-1iO" name="Page-1"><mxGraphModel dx="688" dy="563" grid="1" gridSize="10" guides="1" tooltips="1" connect="1" arrows="1" fold="1" page="1" pageScale="1" pageWidth="850" pageHeight="1100" math="0" shadow="0"><root><mxCell id="0"/><mxCell id="1" parent="0"/><mxCell id="10" value="«interface»&lt;br&gt;Discount" style="html=1;fillColor=#60a917;fontColor=#ffffff;strokeColor=#2D7600;" vertex="1" parent="1"><mxGeometry x="250" y="20" width="250" height="30" as="geometry"/></mxCell><mxCell id="11" value="&lt;p style=&quot;margin: 4px 0px 0px;&quot;&gt;+ method:interpreter(Map&amp;lt;String,Integer&amp;gt;)&amp;nbsp; int&lt;br&gt;&lt;/p&gt;" style="verticalAlign=top;align=left;overflow=fill;fontSize=12;fontFamily=Helvetica;html=1;fillColor=#6d8764;fontColor=#ffffff;strokeColor=#3A5431;" vertex="1" parent="1"><mxGeometry x="250" y="50" width="250" height="20" as="geometry"/></mxCell><mxCell id="12" value="Position" style="swimlane;fontStyle=1;align=center;verticalAlign=top;childLayout=stackLayout;horizontal=1;startSize=26;horizontalStack=0;resizeParent=1;resizeParentMax=0;resizeLast=0;collapsible=1;marginBottom=0;fillColor=#1ba1e2;fontColor=#ffffff;strokeColor=#006EAF;" vertex="1" parent="1"><mxGeometry x="40" y="140" width="250" height="48" as="geometry"/></mxCell><mxCell id="13" value="+ field: discount                                           int" style="text;strokeColor=#432D57;fillColor=#76608a;align=left;verticalAlign=top;spacingLeft=4;spacingRight=4;overflow=hidden;rotatable=0;points=[[0,0.5],[1,0.5]];portConstraint=eastwest;fontColor=#ffffff;" vertex="1" parent="12"><mxGeometry y="26" width="250" height="22" as="geometry"/></mxCell><mxCell id="16" value="HoleDiscount" style="swimlane;fontStyle=1;align=center;verticalAlign=top;childLayout=stackLayout;horizontal=1;startSize=26;horizontalStack=0;resizeParent=1;resizeParentMax=0;resizeLast=0;collapsible=1;marginBottom=0;fillColor=#1ba1e2;fontColor=#ffffff;strokeColor=#006EAF;" vertex="1" parent="1"><mxGeometry x="470" y="140" width="250" height="48" as="geometry"/></mxCell><mxCell id="17" value="+ field: salesForWhichItems  List&lt;Discount&gt;" style="text;strokeColor=#432D57;fillColor=#76608a;align=left;verticalAlign=top;spacingLeft=4;spacingRight=4;overflow=hidden;rotatable=0;points=[[0,0.5],[1,0.5]];portConstraint=eastwest;fontColor=#ffffff;" vertex="1" parent="16"><mxGeometry y="26" width="250" height="22" as="geometry"/></mxCell><mxCell id="20" value="" style="endArrow=block;dashed=1;endFill=0;endSize=12;html=1;rounded=0;fillColor=#60a917;strokeColor=#80FF00;" edge="1" parent="1"><mxGeometry width="160" relative="1" as="geometry"><mxPoint x="220.1400000000001" y="96" as="sourcePoint"/><mxPoint x="271.18000000000006" y="70" as="targetPoint"/><Array as="points"><mxPoint x="140" y="140"/><mxPoint x="220" y="96.39999999999998"/></Array></mxGeometry></mxCell><mxCell id="21" value="" style="endArrow=block;dashed=1;endFill=0;endSize=12;html=1;rounded=0;fillColor=#60a917;strokeColor=#80FF00;entryX=0.75;entryY=1;entryDx=0;entryDy=0;" edge="1" parent="1" target="11"><mxGeometry width="160" relative="1" as="geometry"><mxPoint x="470.1400000000001" y="206" as="sourcePoint"/><mxPoint x="400" y="130" as="targetPoint"/><Array as="points"><mxPoint x="470" y="206.39999999999998"/></Array></mxGeometry></mxCell><mxCell id="22" value="+ field: itemName                                   String" style="text;strokeColor=#432D57;fillColor=#76608a;align=left;verticalAlign=top;spacingLeft=4;spacingRight=4;overflow=hidden;rotatable=0;points=[[0,0.5],[1,0.5]];portConstraint=eastwest;fontColor=#ffffff;" vertex="1" parent="1"><mxGeometry x="40" y="188" width="250" height="22" as="geometry"/></mxCell><mxCell id="23" value="&lt;p style=&quot;margin: 4px 0px 0px;&quot;&gt;+ method:interpreter(Map&amp;lt;String,Integer&amp;gt;)&amp;nbsp; int&lt;br&gt;&lt;/p&gt;" style="verticalAlign=top;align=left;overflow=fill;fontSize=12;fontFamily=Helvetica;html=1;fillColor=#6d8764;fontColor=#ffffff;strokeColor=#3A5431;" vertex="1" parent="1"><mxGeometry x="40" y="210" width="250" height="20" as="geometry"/></mxCell><mxCell id="24" value="&lt;p style=&quot;margin: 4px 0px 0px;&quot;&gt;+ method:interpreter(Map&amp;lt;String,Integer&amp;gt;)&amp;nbsp; int&lt;br&gt;&lt;/p&gt;" style="verticalAlign=top;align=left;overflow=fill;fontSize=12;fontFamily=Helvetica;html=1;fillColor=#6d8764;fontColor=#ffffff;strokeColor=#3A5431;" vertex="1" parent="1"><mxGeometry x="470" y="188" width="250" height="20" as="geometry"/></mxCell></root></mxGraphModel></diagram></mxfile>